# xmcd
#
# Track frame offsets:
#	150
#	22560
#	44075
#	57650
#	72275
#	83462
#	99662
#	109750
#	125312
#	139637
#	150450
#	165137
#	175450
#	196770
#	210492
#	220705
#
# Disc length: 3147 seconds
#
# Revision: 1
# Processed by: cddbd v1.4PL0 Copyright (c) Steve Scherf et al.
# Submitted via: audiograbber 1.82.00
#
DISCID=cb0c4910
DTITLE=Big Bill Broonzy - Ridin On Down
DYEAR=1900
DGENRE=
TTITLE0=Ridin' On Down
TTITLE1=Feelin' On Down
TTITLE2=This Train
TTITLE3=Baby Please Don't Go
TTITLE4=St. Louis Blues
TTITLE5=Tell Me Who
TTITLE6=Alberta
TTITLE7=In The Evening
TTITLE8=All I Got Belongs To You
TTITLE9=Goin' Down This Road
TTITLE10=Treat Everyone Right
TTITLE11=Tell Me What Kind Of Man Jesus Is
TTITLE12=I Got Up This Morning Blues
TTITLE13=See See Rider
TTITLE14=Sixteen Tons
TTITLE15=Glory Of Love
EXTD=
EXTT0=
EXTT1=
EXTT2=
EXTT3=
EXTT4=
EXTT5=
EXTT6=
EXTT7=
EXTT8=
EXTT9=
EXTT10=
EXTT11=
EXTT12=
EXTT13=
EXTT14=
EXTT15=
PLAYORDER=
